<?xml version="1.0" encoding="UTF-8"?>
<svg id="Layer_1" xmlns="http://www.w3.org/2000/svg" version="1.1" viewBox="0 0 373.48 384">
  <defs>
    <style>
      .st0 {
        fill: #24bef0;
      }

      .st0, .st1 {
        fill-rule: evenodd;
      }

      .st2 {
        fill: #1d4078;
      }

      .st1 {
        fill: #fff;
      }
    </style>
  </defs>
  <path class="st0" d="M200.27,54.65l-27.93-3.65-12.14-14.6c-.35-.42-.38-.99-.08-1.44.3-.45.84-.65,1.36-.5l65.77,19.31c.49.14.82.55.87,1.06.04.51-.22.97-.67,1.19l-61.54,30.19c-.49.24-1.05.14-1.42-.26-.37-.4-.44-.97-.17-1.44l13.2-22.91c-68.24,18.54-119.7,89.09-98.58,167.9,19.62,73.21,94.89,116.67,168.1,97.05,28.44-7.62,52.4-23.65,69.91-44.69-18.71,25.62-45.96,45.26-78.98,54.11-76.81,20.58-155.79-25.02-176.37-101.83-21.81-81.38,29.66-153.25,98.61-174.61,13.3-4.12,26.24-4.37,40.06-4.91h0Z"/>
  <circle class="st2" cx="203.32" cy="202.04" r="104.56"/>
  <g>
    <path class="st1" d="M186.93,232.22c.15-.97-.51-1.98-.81-2.82-.24-.7-.86-.66-1.45-.62-.46.02-.92.07-1.21-.24-.68-.7-1.69-.97-2.75-1.85-1.06-.9-1.67-1.14-2.6-.77-.26.13-1.85-.24-2.99-.95-.88-.57-.77-.51-1.45.13.44-.95-.66-.9-.24-1.1.42-.18.79-.33-.99-1.19s-1.8-1.61-3.08-1.28c-1.28.33-.84,1.45-1.21,1.41-.37-.07-1.06.33-.75,1.56-.88-.99.44-1.89-.64-1.23-.55.31-.68.18-.84.04-.11-.07-.24-.15-.51-.11.48-.22.62-.18.73-.13.09.04.18.09.51-.11.33-.2.51-.2.68-.2.13,0,.26,0,.51-.15.51-.31-.42-.33.42-.99.81-.66.11-.57.55-1.1.44-.55-.68-.46-1.63-.35-.31.02-.53-.02-.68-.07-.33-.07-.44-.13-.81.37-.57.75-.07.57-.31,1.21-.24.62-1.17.48-1.1,1.01.04.42.09.79.11.95-.09-.24-.33-.99-.7-1.08-.33.24-.62.31-.29.04.11-.07.2-.07.29-.04.29-.2.64-.55.68-.95.15-.9.09-1.54.75-1.91.68-.4.33-.73.95-1.19.59-.44.42-1.3-.37-1.45-.09-.02-.79-2.27-1.06-3.28-.02-.11-.04-.2-.07-.24,0,.11-.02.2-.24-.15-.42-.73-.57-.48-.57-.48-.18-.57-.35-.37-.42-.75-.09-.37-.2,0-.48-.53-.15-.24-.18-.2-.22-.15-.07.04-.11.09-.31-.18-.4-.53-.97-.37-1.14-.7-.22-.31-.42-.18-.51-.07.02-.26-.99-.55-1.14-.4-.09.07-.18.04-.31.04-.15-.04-.35-.04-.55.11-.07.04-.13,0-.22-.04-.11-.04-.26-.11-.55.04-.22.11-.51,0-.81-.11-.35-.15-.73-.31-.95,0-.4.55-.59.75-.62.75,0-.02.9-1.32.33-1.43-.55-.09,0-.29-.68-.81-.7-.51-.57-.26-.88-.11.48-.95.44-.95-.48-1.69-.92-.77-1.06-1.1-1.67-.77-.51-.59-.55-.53-.73-.44-.13.07-.35.11-.84-.09.97.04.7-.2.7-.46s-.48-.09-.26-.26c.24-.18-.26.02-.22-.31.09-.57-.7-.79-.88-1.06-.22-.26-.73-.55-.9-.26-.62-.88-.4-1.06-.73-1.01s-.57-.15.18-.15c.7,0,1.32-.04,1.25-.22-.02-.02-.04-.02-.15-.02s-.35,0-.79-.07c-.35-.04-.46,0-.59.02-.11.04-.24.07-.62,0-.73-.11-1.32.07-.13.2-1.06.11-.02.51-1.41.66-1.41.18-1.85-.09-1.61-.4.22-.29-.88-.4-2.07-.24-1.21.15-1.72-.31-1.32-.46.37-.13-.15-.59-.48-.75-.15-.09-.18-.07-.24-.04-.04.02-.13.02-.48-.09-.64-.22-.7.02-.75-.55-.02-.59-.73-.57-.75-.15-.02.42-.11.55.33.4.24-.09.33.02.33.13,0,.09-.09.2-.24.13-.33-.13.07.2-.55.37-.64.18-.79.2-1.21.73-.42.51-.07.48-.31.77-.26.29.18.44.18.44,0,0,.29.33.29,1.28,0,.18-1.14.59-1.08.07.02-.37-.86-.31-.68-.88.2-.59,1.25-.53.95-1.08-.22-.37-.09-.33.04-.29.15.07.33.11.11-.35-.07-.18-1.01-.79-.26-1.08.62-.24.29-.33.4-.37.55-.4.57-.7-.07-.86-.66-.18-.2.11-.84.11s.55.24-.77.88c-1.32.64-1.28.81-1.83.81-.35,0-.97.81-.79.86-.73-.07.55-.75-.59-.37-.75.26-.73.66-1.14.9-.22.13.15.59-.18,1.1-.24.37.37.26-.2.77l-.09-.02c-.15-.02-.44-.04-.7.51-.33.7-.59.51-.73.7-.15.15.48.07.29.42-.09.15-.15.15-.2.15t0,.04c-.46-.64-.66-.48-.84-.77-.35-.59-.37-.15-.64-.53-.13-.15-.07-.18,0-.18-.04-.09-.13-.15-.35-.29-.51-.31-.59-.31-.68-.29-.07,0-.09,0-.24-.09-.22-.13-.57-.11-.77.02-.18.11-.57.37-.37.57.2.2.75.22.07.33-.29.02-.42.11-.46.15.02-.04.07-.11.13-.22.22-.46.02-.48-.13-.29-.26.31-.73.09-1.1.37-.22.15-1.28.15-1.36,0-.09-.18-.51-.48-.51-.48-.18.18.29.48-.2.31-.46-.18.09-.29-.02-.37-.11-.09-.33,0-.04-.2.13-.09-.15-.09-.44-.4-.26-.29-.9-1.03-.88-1.47.02-.46-.22-.4-.15-.42-.09-.24-.4-1.12.02-1.32.29-.13.2-.73.09-.68-.11.02-.15-.11-.15-.24.02-.15.07-.31.15-.2.13.18.07-.18.09-.4.02-.22.07-.33-.11-.22.09-.07.24-.22.26-.4,0-.29-.07-.4.11-1.01.15-.64.4-.84.09-.97.37-.02.73-1.06.4-1.14-.51-.15.42-.48.18-.62-.22-.11,0-.33-.75-.73-.37-.2-.31-.09-.24.04.07.13.13.26-.26.02-.29-.15-.51-.15-.57-.15-.09,0-.04,0,.15-.09.35-.18.92.04.11-.26-.53-.2-.7-.18-.81-.18h-.18c-.09-.04-.09,0-.09.02,0,.04,0,.09-.2,0-.35-.15-.88-.07-1.43.04-.55.09-1.1.2-1.41.02-.73-.31-.62.11-.64.11-.46.04-.31.4-.73.02-.22-.2-.33-.15-.4-.11-.04.04-.04.09-.04-.09-.07-.55.2-.37.57-.84.37-.44.79-.92.7-1.45-.11-.53.86-1.58.04-1.43-.04-.15.26-.22.4-.55-.09.64.29.37.09,1.19.42-.11.09-.81.35-.97.24-.18.31-1.21.84-1.74.55-.53.18-.55.07-.51l-.15-.07s.04-.09.15-.09c.55.02.37-.37.62-.79.22-.42.86-.62.66-1.12-.11-.26-.15-.26-.2-.26s-.11,0-.26-.24c-.2-.31-.22-.24-.37-.15-.11.02-.29.09-.64.02-.4-.07-.75,0-1.01.09-.29.07-.51.15-.66.04-.15-.09-2.16.18-2.2.92-.04.77.09,1.45-.2,1.5-.66.15-.24,1.01-.68,1.19-1.06.42.24.22-.62.68-.66.31-.62,0-.24-.13.4-.13.09-.29-.33-.02s-.59.04-1.3.37c-.7.33-1.12.04-1.76.51-.64.51-.97-.04-1.25-.09-.29-.04-.22-.24-.68-.22-.79.07-.13-.64-.57-.77-.44-.13-.04-.2-.37-.95-.35-.75-1.08-1.8-.68-2.38.4-.59-.7-1.14-.02-2.05.68-.92.29-2.82,1.17-3.85.66-.75.59-1.06.62-1.39.07-.7.35-.66.15-.95-.18-.29.24-.22.4-.88.15-.68-.15-.51.24-.57.4-.07-.04-.35.33-.15.2.09.42-.48.62-.55.4-.09.7-.55.57-.79.37.26.44.09.44-.11.02-.11,0-.22.04-.22l.07-.11c.02-.09.04-.18.22-.07.11.07.2,0,.29-.04.11-.07.2-.13.31-.04.18.18.4-.42.97-.55.95-.24.15-.31.4-.51.26-.2-.29-.22.62-.64-.44.44-.02.4-.29.75-.26.33.31-.18.97-.57.88-.55,1.32-.33,1.67-.11.26.15.48.31.86.2.44-.15.29-.42.59-.07.18.2.22.15.26.11.02-.02.02-.07.09.07.18.29,1.01.09,1.23.33.2.2.31.11.37.02.07-.07.13-.15.22-.07.22.18.04.29.59.15.53-.13-.33-.29-.13-.46.2-.15-.37-.22-.26-.42.4-.59-1.01-.07-.73-.7.15-.31.26-.18.48-.04.18.11.44.22.84.07.07-.04.22-.02.37,0,.31.04.62.09.59-.18-.04-.53.09-.42.09-.42,0,0-.22.62.37.42.62-.2.51-.18.55-.33.29.35,1.52.22,1.21.04-.29-.15.92-.22,1.23-.11.31.09-1.85.04-.57.35,1.3.31,1.74.4,1.43.55-.31.13-.07.26.31.09.13-.07.2-.02.26,0,.11.04.26.09.79-.24.88-.55.66.15,1.1.24.44.04.11.53.64.81.55.31-.7,1.61-.51,2,.22.37-.37.24.2,1.58.2-.18.44-.15.22.11-.18.26.02.33,0,.75-.07.88.42.48.53.81.11.33.77.4.44.51-.33.09.02.44-.31.26-.18-.07-.22.04-.15.15.09.13.31.26.64.13.15-.07.24-.07.29-.07.07.02.11.04.22-.13.07-.11.09-.07.13-.04.04.04.11.09.29-.09.33-.31-.2.09.22-.68.4-.79.77-1.67.44-1.96.07-.31-.4-.79-.4-1.67,0-.51.04-.13.11.22.04.24.09.48.13.48.11-.02-.07-1.03-.09-1.56,0-.26,0-.2-.02-.15s-.04.11-.09-.29c-.13-.75-.31-1.94-.02-2.29.29-.37-.35-.35,1.25-2.29.48-.59.77-.13.64-.55-.07-.18.42-.09.11-.57-.02-.04-.07-.07-.07-.11,0,0,.07.04.11.09.18.11.46.2.7-.15l.07.04c.07.11.24.2.92-.42.35-.33.29.11.75-.68.11-.2.73-.75,1.21-.62.22.07.51-.2.77-.44.26-.26.51-.53.64-.46.24.11.44-.59,1.17-.66.7-.07.55-.46.84-.64.11-.09,0-.04-.13,0-.2.04-.42.09-.09-.13.37-.26-.73-.59.15-.37.86.24.55.11.86-.13.33-.24.2-.64-.07-.35-.15.18-.07.09-.07.02-.02-.04-.09-.11-.31-.09-.59.04-.4-.11-.26-.35.11.18.29.15.53.15.11-.02.22-.02.33-.02.4.04.37-.64.22-1.1-.15-.46.18-1.36-.37-1.06.55-.4-.07-.44-.2-.7.22.09.29.07.35.07.04-.02.11-.04.22,0-.31-.4.09-.42-.51-.75.26.11.62.2.31-.33.24.26,0-.42.46-.7.44-.26,1.03-.42.51-.02-.55.4-.02.13-.29.53-.26.4.33.37.07.68-.26.33.48.42.11.84-.37.4-.46.64-.04.44.42-.22.68-1.1,1.03-1.45.22-.18.07.11-.09.37-.11.22-.22.42-.22.42.31-.29.99-1.14.59-1.39-.42-.26.13-.29-.29-.51-.44-.24-.2-.24-.18-.55.18.53.46.37.53.79.04.44.13.09.37-.2.46-.59.46-.18.77-.62.13-.24.18-.2.24-.15.04.04.13.09.35-.09-.33-.26-.26-.31-.37-.48.33.26.46.44.7.13.22-.31.35-.31.7-.59.59-.51-.24-.24.18-.51.13-.07.09-.24.35-.29.46-.09.44-.7,1.52-.73s.46-.35,1.01-.15c.42.15,1.01-.51,1.01-.51,0,0,.92-.4,1.12.02.33-.42.26-.4.11-.35-.13.02-.31.04-.37-.18-.2-.48-.11-.57.31-1.03.4-.46.26-.09.77-.79.48-.7.99-.4,1.47-.75.18-.13.29-.09.4-.07.15.09.26.15.62-.57.09-.15.13,0,.15.15.07.2.13.4.29-.07.24-.7.97-.24.97-.24,0,0,1.85-.7,1.56-.92.11-.2.2-.18.37-.15.2.04.53.07,1.08-.22,1.06-.53,1.03-.55.88-.88.86.46-.7.88-.53.99.07.02.24-.02.46-.09.22-.07.48-.15.68-.07.37.13.81.02,1.23-.04-.99.26-1.34.18-1.25.26.02.04-.04.04-.15.02-.31-.02-.92-.04-1.56.48-.9.73-1.32,1.12-.99,1.36.11.07-.13.37.29.53.24-.07.13-.48.29-.33.15.18.79-.4,1.34-.55.55-.18-.31-.48.42-.53.75-.02.22-.48,1.08-.26.42.09.46,0,.48-.11.02-.11,0-.2.31-.09.59.24,1.03-.53,1.58-.62.55-.11.73-.64.73-.64,0,0,.04-.29-.37-.11-.33.15-.31.04-.24-.04.04-.11.11-.22-.42.02-.97.48.18-.11-.88-.18-1.03-.04-.46-.55-1.3-.55-.13-.77-.44-1.41-.77-1.41.7-.24.84-.62.73-.77-.07-.11-.22-.07-.37-.04-.11.04-.22.07-.29.02-.13-.09-.18-.15-.57-.07.4-.22.55-.2.68-.18.13,0,.26.02.66-.22.79-.46.81-.22,1.21-.44.15-.11-.33-.2-.15-.33.07-.04.11,0,.13.04.04.04.09.09.13-.09.09-.29-.62-.59-1.96-.37-1.34.24-5.02,1.72-5.92,2.42-.9.68-1.01.59-1.47.77.95-.55.64-.77,1.28-.95.62-.18,2.13-1.72,3.04-1.89.53-.09.46-.46.64-.35.44.22.35-.29,1.12-.46.77-.15,1.41-.22,1.39-.59,0-.35.59-.46,2.99-.68,1.61-.15,2.02-.07,2.22,0,.2.07.13.13.81-.02.77-.18.99-.11,1.14-.02.22.09.31.18,1.41-.26,1.25-.51,1.36-.4,1.36-.37,0-.02.02-.07.13-.2.26-.31.44-.26.53-.24.09.04.11.07.07-.07-.11-.29.24-.18.84-.48.75-.42.81-.37.9-.33.07.02.15.07.79-.24,1.36-.64.11-.99.46-1.03.31-.02-.55-.29-.09-.48.46-.18.26-.73-.26-.68-.51.04-.46.29-.66.11-.22-.18.4-.13,0-.42-.4-.29-.68-.15-1.36.13s-1.67.55-2.44.46c1.39-.51-.15-.57,1.17-.57.99,0,1.41-.29,2.31-.44.9-.13-.11-.31-.55-.29-.2.02-.24-.09-.26-.18-.04-.09-.07-.2-.31-.18-.22.02-.2-.04-.2-.11s0-.13-.35-.09c-.29.02-.31-.09-.29-.2.02-.15.11-.31-.24-.13-.64.33.13-.68-.37-1.01s.7-1.08,0-.9c-.68.2-.92.24-1.19.13,1.19-.13,1.65-.75.75-1.03.42-.62-.42-.66-.24-1.03.18-.37-.37-.33-.24-.64.11-.31-.26-.26-.18-.55.09-.31-.24-.13-.53-.59-.26-.46-.35.44-1.06.73-.59.24.26.66-.57.9-.75.2-.51.59-.7.73-.09.04-.09-.11-.09-.26-.02-.22-.04-.42-.26-.13-.44.48-1.25.55-1.39,1.08-.02-.13-.13-.11-.22-.11-.13.02-.24.04-.15-.22.15-.48-1.01-.13-1.87.7.22-.42-.2-.42-.53-.4.48-.13.42-.2.66-.53-.04.4.24.48.86-.11.48-.44-.04-.75-1.12-.24-.13-.53,1.34-.48,1.28-1.1-.02-.18-.57-.2-.57-.2,1.89-.24-.24-.51.99-.77.79-.18.66-.33.51-.48-.09-.09-.22,0-.37.09-.15.09-.31.15-.44.07-.26-.22.33-.33-.02-.51-.13-.07-.22,0-.31.07-.09.09-.2.18-.46-.07-.26-.22-.73-.02-.59-.79-.97-.81-1.25-.59-1.63-.4-.26.15-.59.33-1.25.07-.73-.26-1.74-.59-2.46-.22-.73.35-.37,1.21-1.03,1.63-1.14.77.73.15-.55.92-.95.55.26.51-.51.75-.62.2.26.09-.75.37-1.47.44-.62.57-.95.79-.59.37,2.2.53-.2,2.93-1.96,1.96-4.66,1.83-4.84,2.05-.29.4.2.07.26.48.02.13.07.13.11.11.09-.02.2-.04.13,1.06-.02.24-.22.18-.22.73.04,1.12-1.28.75-1.32,1.12-.07.42.04.37.4.57-.4,0-.79.11-.29.55-.77-.37-.22-1.1-.7-.86-.46.22-1.06.22-.92.44.15.22.02.18-.15.11-.13-.04-.26-.09-.31-.02-.07.04-.02-.2,0-.42,0-.29-.02-.55-.29-.37-.35.24-.64.26-.81.37.37-.4.99-.4.62-.59-.42-.2.55-1.25-.88-1.45.77-.09.66.07.73-.51.07-.59-.77-.07-1.08-.62.55.07.68.31.9.07.11-.11.18-.09.24-.07.07.04.13.07.31-.15.29-.44-.44-.24.29-.75.4-.31.22-.29-.07-.29-.22.02-.46.02-.55-.09-.11-.11-.57-.09-1.03-.07-.55.02-1.08.07-1.01-.15.22-.64-.29-.09-1.03-.57-.2-.13-.33-.11-.42-.09-.13,0-.2.02-.26-.26-.13-.51-1.83-.22-1.98-.81-.15-.59-1.58.18-2.11.22h-.35c-.13-.02-.15-.04-.37.11.33-.31.44-.31.57-.29.11,0,.26.02.68-.29.2-.15-.11-.68,0-.86.09-.15.04-.75-.42-.62-.48.11-.62-.07-.86.31.02-.53.02-.46-.42-.4,1.01-.57.42-.92,1.28-1.39.88-.48-.18-.4.59-.53.81-.13-.07-.18.57-.4,1.78-.62.7-.79,1.34-.75.35.02,1.39-.75,1.89-.84.53-.07.2-.37,1.52-.62.79-.15-1.03-.55.7-.4,1.21.11,1.19-.18,1.06-.46-.15-.29-.42-.46-1.47-.09.53-.22.4-.26-.62-.26,1.21-.18,1.8-.11,2.16-.04.31.07.44.13.68.04.53-.13.75.11.81-.44.26.33.51.26.86.22.15-.04.33-.07.53-.07.64.02,1.12-.44,1.98-.88.53-.26.44-.26.09-.26-.22,0-.53,0-.84-.07-.79-.18-.29-.62-1.41-.77,1.58-.11.66.59,1.69.66,1.06.07.57-.04,2.05-.46,2.46-.66-.26-.48.77-.86.95-.35,1.03-.18,1.08.02.07.15.11.31.57.18.22-.07.4-.04.51-.04.22.02.24.02,0-.35-.13-.2-.26-.29-.4-.33.53.04.73.68,1.17.46.24-.13.37-.13.51-.11.15,0,.33,0,.73-.15.31-.15.48-.11.66-.09.24.04.48.09,1.12-.26,1.1-.59-.07-.55.48-1.08.13-.11-.22-.44.33-.35.68.09.33-.22.79-.31.44-.09-.29-.4-.7-.62-.42-.2-.92,0-1.65-.29-.73-.24-2.02.62-1.14.77-.4.04-.48.13-.92.51-.46.35-1.17.15-2.62,1.28.31-.53-.37-.77.29-1.12.66-.37-.29-1.1-.73-.62-.46.48-1.01.42-1.39.46.88-.7.15-.77-.37-.73.99-.57-.15-.59.37-.79.22-.09.26-.02.31.04.04.07.07.13.44-.04.46-.24-.68-.37-.29-.92.18-.26-.57-.64-1.25-.44-1.52.42-.02.26-.55.51-.24.11-.33.07-.4.04-.07-.02-.11-.07-.37.11-.46.31-1.03.42-.88.66.24.44-1.76.31-1.1,1.03.4.4.51.33.64.29.09-.04.18-.09.31,0,.22.13.64.02,1.01-.11.33-.09.62-.2.75-.13.11.04-.81.53-1.01.44-.4-.11-1.36.33-1.01.51.2.09.26.02.33-.07.07-.07.13-.13.29-.07.31.15-.26.33-1.19.42-.4.04-.64,0-.84-.07-.26-.07-.42-.13-.66,0-.7.44-.02.57-1.12.88.84-.59.11-.44.64-.79s-.04-.04-.44-.44c-.2-.2-.2-.11-.29-.02-.09.09-.22.15-.68.04.26.73.75.33.75.68,0,.37-.29.29-.68-.22-.26-.33-.2-.18-.33,0-.07.09-.2.18-.48.18-.29-.02-.42.04-.51.09-.13.09-.13.18-.55-.09-.53-.33-1.94-.31-2.9-.33l-.75.55c-1.65,1.58-2.73,2.35-4.33,4-1.58,1.65-3.76,3.59-5.28,5.3-1.5,1.74-3.1,3.63-4.51,5.43-1.41,1.8-2.82,3.65-4.11,5.52-1.3,1.87-2.49,3.78-3.67,5.72-1.21,1.94-2.22,3.98-3.32,5.96-1.06,1.98-1.89,3.94-2.84,5.96-.95,2.02-1.69,4.27-2.51,6.34-.81,2.09-1.36,4.33-2.05,6.47-.48,1.58-1.01,3.65-1.67,6.47-.51,2.18-.86,4.31-1.21,6.53-.37,2.2-.57,4.47-.77,6.71.31.07,1.03-.04,1.3.26.42.57.73.31.99.64.29.33.97.48,1.25.26,1.01.79.9.09,1.65.09.75-.02.33-.29,1.06-.35.73-.09-.22-.02.02-.26.15-.13.22-.11.33-.09.07.02.18.04.33-.02.33-.18.33.24-.13.29.33.29.59-.11,1.72.88,1.01.92.9,1.06,1.08,1.34.92,1.36,1.03,1.19,2.35,1.47.62.13.2.2,1.06.31.86.11.73.81,2.38.15.64-.26.24.2.55.31.13.04.13.13.13.2-.11-.18-.79-.13-.24.37.55.55.37,1.74,1.21,2.27s.15.48.66.97c.2.18-.02.15-.29.26-.29.09.4.13.31.33-.07.18.18.51.11.62-.24.33-.15.37.4.7s.55-.09.35-.2c-.2-.11-.46-.42.2-.09.64.33-.26.24.33.53.57.26.75.51,1.36.97-.2.15.11.33.02.4-.31.26-.24.33.02.44.29.09.57.04.31-.11-.24-.18-.04-.26.26-.09.31.18-.29.35.09.4.24.07.11.33.22.37.11.02.15.09.2-.18.02-.15.09-.11.18-.07.07.02.15.07.26-.04.22-.22-.09.09.46.15.59.09.44.4.81.62.35.2.15.48.46.46.31-.02.04-.37.4-.42-.2.2-.04.4.11.73.13.31.64.33.99-.09.31-.42-.26-.35-.15-.57.11-.22-.35-.13-.02-.55.55-.68,1.01-.77.84-.86-.18-.11.22-.2.73-.22s.64.09.7.22c.09.13.09.24.33.22.46-.04.22.26.26.55.46-.26.59-.31.73-.66.02.55.15.66-.07.59s-.29.02-.46.18c-.4.33-.04.68-.13.9-.18.44.22.2.18.44-.07.26.11.15.13.42.02.11.07.11.11.11.07,0,.15,0,.24.26.02.15.24-.15.31.59,0,.15-.04.13-.07.13-.04,0-.07-.02.24.55.24.51-.33.62-.42.73q-.07.13-.02.13s.18,0,.24.4c.09.66.26,1.45.11,1.76-.13.29-.33.64.13.79.44.18.24-.07.53-.07.26,0-.37.18.02.4-.48.22-1.19,1.19-1.14,1.41.07.48-.97.13-1.36.77-.29.44.4.59.26.92-.07.13-.13.11-.24.11-.18-.02-.4-.04-.75.42-.33.44-.2.4-.09.37.09-.02.2-.04.09.13-.2.42-.57.26-.84.57-.29.31-.59,0-.73.4-.04.18.04.18.11.18.13,0,.24,0,.02.4-.33.68.26.13-.26,1.08-.55.97-.84,1.61-.48,1.63.35.02-.22.24.24.35-.53.02.04.2-.29.44-.33.22.29.24.09.57-.07.13.48.04.15.31-.31.26.02-.04.18.37s.35.29.33-.22c0-.13.42-.33.4-.09s.46.18.09.73c-.62.9-.53,1.3-.97,1.17-.15-.04-1.1.73-.79.92.29.18-.26.22,0,.75.15.33-.81-.22.11.7.77.75.07.62.48,1.1.09.11-.29.59.44,1.34,1.23,1.28,1.25.88,1.52,1.47.26.62.84.75,1.01,1.25.18.51.42-.11.86,1.23.42,1.34,1.28,2.4,1.56,3.59.29,1.19.9.99.99,1.87.11.86.66.55.4,1.06-.26.51.84,1.54.84,1.96,0,.07-.09,0-.2-.07-.15-.09-.33-.18-.15.13.31.51.92.73,1.41,1.36.48.66,1.08.66,1.63,1.41.55.75,1.28.44,2.24,1.19.31.26,2.79,1.21,3.21,2.11.18.4.57.59,1.23,1.14.18.18.07.26.48.92.4.68-.22.26.4.99.29.35.13,1.06.42,1.74.13.33.04.29-.02.26-.11-.04-.2-.07.02.42.4.92.64.55.35,1.45-.13.42-.11.4-.04.4.09-.02.22-.04.26.62.04,1.5-.64.79-.24,1.34.62.88.2.77.62,1.52.4.77-.22.53.31,1.12.29.31-.02.22-.04,1.74-.02.81.09,1.56-.02,2.86-.22,2.22.44,1.23.46,1.89.02.68.44.22.42.62-.02.15-.09.09-.15.02-.07-.04-.15-.09-.24,0-.13.22.18.24.07.42-.07.07-.15,0-.24-.07-.11-.09-.2-.18-.15.07.09.4.51,2.05,1.21,3.34.7,1.3.33,1.25.7,2.11.35.86-.18.68.11,1.85.29,1.01-.68.4-.29,1.14.42.77-.24.33.13,1.03.2.31-.4.15-.02.86.35.68-.42.4-.4.2.04-.24-.02-.51-.15-.02-.13.48.02.73.59,1.14.79.57.11.53.35.68.26.15.02.64.59,1.39,1.14,1.5-.62.97.18,1.83.77.86.07,1.03.59,1.78.07.09.07.04.09-.02s.07-.13.24,0c.11.09.2.04.29-.02.11-.04.24-.11.42.07.31.33.15.51.48.84.35.33.7.15.29.79-1.08,1.61-.29,2.09-.26,2.11,1.8,1.23,3.17,1.87,5.06,2.99,1.83,1.06,3.7,1.85,5.54,2.79.04-.09.44-.99.15-1.45-.31-.51-.48-.46-.7-.4-.22.02-.46.07-.9-.48-.35-.46-.99-.26-.81-1.23.15-.79.53-.57.73-.88.2-.31,1.23-.04.9-.55-.37-.62.53-.33.13-1.01-.37-.68.09-.35-.07-.92-.15-.55.51-.42.46-.55-.07-.15-.92-.2-.97-.31-.02-.13.97-.37,1.06-.07.09.29.57.15.42-.18-.15-.37.37-.7-.51-.62-.68.07.4.09-.15.35-.37.22-.46-.09-.51-.09-1.39.02.24-.86-1.21-1.67-.75-.42.57-.7.35-.42-.22.29.15,0,.92.37.77.4,2.2-.57,1.85-.73-.35-.15-.46-1.03-.13-1.03.24-.02.55-.44.11-.55s-.04-.48-.44-.57c-.42-.09-.13-.62,0-.64.18-.04.18.04.22.13.04.07.11.13.35.11.04,0,.15.04.35.11.44.11,1.34.24,2.68-.42.9-.44,1.58,0,2.07-1.67.2-.64.59-.4.2-1.54-.02-.09-.13-.09-.26-.09-.33,0-.84.02-.77-1.12.04-1.3-3.37-1.78-2.68-2.02.73-.26-.62-.2-.18-1.69.26,2.13,1.76,1.47,2.16,1.91.2.2.37.15.57.11.22-.04.46-.09.77.18.59.53,2.27.35,2.99-.79,2.22-1.5.33-1.56,1.65-2.35,1.34-.81.44-1.87,1.03-2.73.59-.88-.59-1.25,1.01-2.29,1.58-1.08.29-1.03.97-1.63.66-.57-.33-1.32-.15-2.55.04-.29-.99-1.28.59-2.86,1.61-1.58,2.22-1.58,2.66-2.2.22-.33.57-.24.95-.15.33.09.7.15,1.01-.07.11-.07.2,0,.29.07.18.11.44.22,1.19-.64.46-.55,1.1-.04.9-1.34-.24-1.69,1.72-1.25,1.23-3.1-.4-1.52,1.21-.86.59-2.27-.59-1.39.53-.68.31-2.31-.2-1.63.59-1.91.09-3.1-.66-1.45,0-2.29-.35-2.99-.44-.88-.22-.7.11-.51.2.11.44.22.62.09,1.1-.84.9-2.97,2.2-4.14,1.1-.95,1.12-1.63,1.89-2.49.73-.81.4-2.62.51-3.61ZM150.79,122.69s-.09,0-.13.02c-.04-.02.02-.04.13-.02Z"/>
  </g>
</svg>
